<?xml version="1.0" encoding="UTF-8" standalone="no"?>
<!DOCTYPE svg PUBLIC "-//W3C//DTD SVG 1.1//EN"
 "http://www.w3.org/Graphics/SVG/1.1/DTD/svg11.dtd">
<!-- Generated by graphviz version 2.43.0 (0)
 -->
<!-- Title: G Pages: 1 -->
<svg width="2001pt" height="303pt"
 viewBox="0.00 0.00 2000.60 303.38" xmlns="http://www.w3.org/2000/svg" xmlns:xlink="http://www.w3.org/1999/xlink">
<g id="graph0" class="graph" transform="scale(1 1) rotate(0) translate(4 299.38)">
<title>G</title>
<!-- AuctionService -->
<g id="node1" class="node">
<title>AuctionService</title>
<defs>
<linearGradient id="l_0" gradientUnits="userSpaceOnUse" x1="1493.86" y1="-206.38" x2="1493.86" y2="-162.38" >
<stop offset="0" style="stop-color:white;stop-opacity:1.;"/>
<stop offset="1" style="stop-color:lightgrey;stop-opacity:1.;"/>
</linearGradient>
</defs>
<path fill="url(#l_0)" stroke="grey" d="M1655.86,-206.38C1655.86,-206.38 1331.86,-206.38 1331.86,-206.38 1325.86,-206.38 1319.86,-200.38 1319.86,-194.38 1319.86,-194.38 1319.86,-174.38 1319.86,-174.38 1319.86,-168.38 1325.86,-162.38 1331.86,-162.38 1331.86,-162.38 1655.86,-162.38 1655.86,-162.38 1661.86,-162.38 1667.86,-168.38 1667.86,-174.38 1667.86,-174.38 1667.86,-194.38 1667.86,-194.38 1667.86,-200.38 1661.86,-206.38 1655.86,-206.38"/>
<text text-anchor="middle" x="1493.86" y="-189.58" font-family="Helvetica,sans-Serif" font-size="16.00" fill="#343541">Auction Service</text>
<text text-anchor="middle" x="1493.86" y="-171.58" font-family="Helvetica,sans-Serif" font-size="16.00" fill="#343541">.NET Core, Entity Framework, PostgreSQL</text>
</g>
<!-- RabbitMQ -->
<g id="node7" class="node">
<title>RabbitMQ</title>
<ellipse fill="#fdfd96" stroke="grey" cx="1916.23" cy="-101.38" rx="67.35" ry="18.27"/>
<text text-anchor="middle" x="1916.23" y="-97.58" font-family="Helvetica,sans-Serif" font-size="16.00" fill="#343541">RabbitMQ</text>
</g>
<!-- AuctionService&#45;&gt;RabbitMQ -->
<g id="edge8" class="edge">
<title>AuctionService&#45;&gt;RabbitMQ</title>
<path fill="none" stroke="#aaaaaa" stroke-dasharray="1,5" d="M1620.61,-162.31C1636.53,-159.38 1652.58,-156.36 1667.86,-153.38 1731.13,-141.07 1803.23,-125.77 1853.2,-114.96"/>
<polygon fill="#aaaaaa" stroke="#aaaaaa" points="1854.17,-118.33 1863.2,-112.79 1852.69,-111.49 1854.17,-118.33"/>
<text text-anchor="middle" x="1753.86" y="-154.58" font-family="Helvetica,sans-Serif" font-size="16.00" fill="#eeeeee">Publishes events</text>
</g>
<!-- PostgreSQL -->
<g id="node8" class="node">
<title>PostgreSQL</title>
<ellipse fill="#aec6cf" stroke="grey" cx="1916.23" cy="-184.38" rx="76.24" ry="18.27"/>
<text text-anchor="middle" x="1916.23" y="-180.58" font-family="Helvetica,sans-Serif" font-size="16.00" fill="#343541">PostgreSQL</text>
</g>
<!-- AuctionService&#45;&gt;PostgreSQL -->
<g id="edge7" class="edge">
<title>AuctionService&#45;&gt;PostgreSQL</title>
<path fill="none" stroke="#aaaaaa" d="M1667.96,-184.38C1723.73,-184.38 1783.09,-184.38 1829.67,-184.38"/>
<polygon fill="#aaaaaa" stroke="#aaaaaa" points="1829.71,-187.88 1839.71,-184.38 1829.71,-180.88 1829.71,-187.88"/>
<text text-anchor="middle" x="1753.86" y="-189.58" font-family="Helvetica,sans-Serif" font-size="16.00" fill="#eeeeee">Stores data</text>
</g>
<!-- BiddingService -->
<g id="node2" class="node">
<title>BiddingService</title>
<defs>
<linearGradient id="l_1" gradientUnits="userSpaceOnUse" x1="932.86" y1="-161.38" x2="932.86" y2="-117.38" >
<stop offset="0" style="stop-color:white;stop-opacity:1.;"/>
<stop offset="1" style="stop-color:lightgrey;stop-opacity:1.;"/>
</linearGradient>
</defs>
<path fill="url(#l_1)" stroke="grey" d="M1087.86,-161.38C1087.86,-161.38 777.86,-161.38 777.86,-161.38 771.86,-161.38 765.86,-155.38 765.86,-149.38 765.86,-149.38 765.86,-129.38 765.86,-129.38 765.86,-123.38 771.86,-117.38 777.86,-117.38 777.86,-117.38 1087.86,-117.38 1087.86,-117.38 1093.86,-117.38 1099.86,-123.38 1099.86,-129.38 1099.86,-129.38 1099.86,-149.38 1099.86,-149.38 1099.86,-155.38 1093.86,-161.38 1087.86,-161.38"/>
<text text-anchor="middle" x="932.86" y="-144.58" font-family="Helvetica,sans-Serif" font-size="16.00" fill="#343541">Bidding Service</text>
<text text-anchor="middle" x="932.86" y="-126.58" font-family="Helvetica,sans-Serif" font-size="16.00" fill="#343541">.NET Core, Entity Framework, MongoDB</text>
</g>
<!-- BiddingService&#45;&gt;AuctionService -->
<g id="edge10" class="edge">
<title>BiddingService&#45;&gt;AuctionService</title>
<path fill="none" stroke="#aaaaaa" d="M1100.18,-150.12C1163.37,-154.47 1235.97,-159.78 1301.86,-165.38 1304.44,-165.6 1307.04,-165.83 1309.65,-166.05"/>
<polygon fill="#aaaaaa" stroke="#aaaaaa" points="1309.53,-169.56 1319.8,-166.95 1310.15,-162.58 1309.53,-169.56"/>
<text text-anchor="middle" x="1209.86" y="-170.58" font-family="Helvetica,sans-Serif" font-size="16.00" fill="#eeeeee">Validates auction state</text>
</g>
<!-- MongoDB -->
<g id="node9" class="node">
<title>MongoDB</title>
<ellipse fill="#fed8b1" stroke="grey" cx="1493.86" cy="-126.38" rx="66.44" ry="18.27"/>
<text text-anchor="middle" x="1493.86" y="-122.58" font-family="Helvetica,sans-Serif" font-size="16.00" fill="#343541">MongoDB</text>
</g>
<!-- BiddingService&#45;&gt;MongoDB -->
<g id="edge9" class="edge">
<title>BiddingService&#45;&gt;MongoDB</title>
<path fill="none" stroke="#aaaaaa" d="M1100.31,-125.21C1106.23,-124.9 1112.1,-124.62 1117.86,-124.38 1221.62,-120.16 1341.65,-121.98 1417.4,-123.95"/>
<polygon fill="#aaaaaa" stroke="#aaaaaa" points="1417.7,-127.46 1427.79,-124.22 1417.89,-120.46 1417.7,-127.46"/>
<text text-anchor="middle" x="1209.86" y="-129.58" font-family="Helvetica,sans-Serif" font-size="16.00" fill="#eeeeee">Manages bids</text>
</g>
<!-- IdentityService -->
<g id="node3" class="node">
<title>IdentityService</title>
<defs>
<linearGradient id="l_2" gradientUnits="userSpaceOnUse" x1="932.86" y1="-285.38" x2="932.86" y2="-241.38" >
<stop offset="0" style="stop-color:white;stop-opacity:1.;"/>
<stop offset="1" style="stop-color:lightgrey;stop-opacity:1.;"/>
</linearGradient>
</defs>
<path fill="url(#l_2)" stroke="grey" d="M992.36,-285.38C992.36,-285.38 873.36,-285.38 873.36,-285.38 867.36,-285.38 861.36,-279.38 861.36,-273.38 861.36,-273.38 861.36,-253.38 861.36,-253.38 861.36,-247.38 867.36,-241.38 873.36,-241.38 873.36,-241.38 992.36,-241.38 992.36,-241.38 998.36,-241.38 1004.36,-247.38 1004.36,-253.38 1004.36,-253.38 1004.36,-273.38 1004.36,-273.38 1004.36,-279.38 998.36,-285.38 992.36,-285.38"/>
<text text-anchor="middle" x="932.86" y="-268.58" font-family="Helvetica,sans-Serif" font-size="16.00" fill="#343541">Identity Service</text>
<text text-anchor="middle" x="932.86" y="-250.58" font-family="Helvetica,sans-Serif" font-size="16.00" fill="#343541">IdentityServer4</text>
</g>
<!-- GatewayService -->
<g id="node6" class="node">
<title>GatewayService</title>
<defs>
<linearGradient id="l_3" gradientUnits="userSpaceOnUse" x1="466.86" y1="-202.38" x2="466.86" y2="-158.38" >
<stop offset="0" style="stop-color:white;stop-opacity:1.;"/>
<stop offset="1" style="stop-color:lightgrey;stop-opacity:1.;"/>
</linearGradient>
</defs>
<path fill="url(#l_3)" stroke="grey" d="M530.86,-202.38C530.86,-202.38 402.86,-202.38 402.86,-202.38 396.86,-202.38 390.86,-196.38 390.86,-190.38 390.86,-190.38 390.86,-170.38 390.86,-170.38 390.86,-164.38 396.86,-158.38 402.86,-158.38 402.86,-158.38 530.86,-158.38 530.86,-158.38 536.86,-158.38 542.86,-164.38 542.86,-170.38 542.86,-170.38 542.86,-190.38 542.86,-190.38 542.86,-196.38 536.86,-202.38 530.86,-202.38"/>
<text text-anchor="middle" x="466.86" y="-185.58" font-family="Helvetica,sans-Serif" font-size="16.00" fill="#343541">Gateway Service</text>
<text text-anchor="middle" x="466.86" y="-167.58" font-family="Helvetica,sans-Serif" font-size="16.00" fill="#343541">Ocelot</text>
</g>
<!-- IdentityService&#45;&gt;GatewayService -->
<g id="edge13" class="edge">
<title>IdentityService&#45;&gt;GatewayService</title>
<path fill="none" stroke="#aaaaaa" d="M851.14,-245.92C819.1,-239.43 781.85,-232.43 747.86,-227.38 665.22,-215.13 642.79,-224.72 560.86,-208.38 552.59,-206.74 544.01,-204.66 535.54,-202.39"/>
<polygon fill="#aaaaaa" stroke="#aaaaaa" points="850.85,-249.44 861.35,-248.01 852.25,-242.58 850.85,-249.44"/>
<text text-anchor="middle" x="654.36" y="-232.58" font-family="Helvetica,sans-Serif" font-size="16.00" fill="#eeeeee">Authenticates requests</text>
</g>
<!-- NotificationService -->
<g id="node4" class="node">
<title>NotificationService</title>
<defs>
<linearGradient id="l_4" gradientUnits="userSpaceOnUse" x1="1209.86" y1="-96.38" x2="1209.86" y2="-52.38" >
<stop offset="0" style="stop-color:white;stop-opacity:1.;"/>
<stop offset="1" style="stop-color:lightgrey;stop-opacity:1.;"/>
</linearGradient>
</defs>
<path fill="url(#l_4)" stroke="grey" d="M1284.36,-96.38C1284.36,-96.38 1135.36,-96.38 1135.36,-96.38 1129.36,-96.38 1123.36,-90.38 1123.36,-84.38 1123.36,-84.38 1123.36,-64.38 1123.36,-64.38 1123.36,-58.38 1129.36,-52.38 1135.36,-52.38 1135.36,-52.38 1284.36,-52.38 1284.36,-52.38 1290.36,-52.38 1296.36,-58.38 1296.36,-64.38 1296.36,-64.38 1296.36,-84.38 1296.36,-84.38 1296.36,-90.38 1290.36,-96.38 1284.36,-96.38"/>
<text text-anchor="middle" x="1209.86" y="-79.58" font-family="Helvetica,sans-Serif" font-size="16.00" fill="#343541">Notification Service</text>
<text text-anchor="middle" x="1209.86" y="-61.58" font-family="Helvetica,sans-Serif" font-size="16.00" fill="#343541">SignalR</text>
</g>
<!-- NotificationService&#45;&gt;RabbitMQ -->
<g id="edge11" class="edge">
<title>NotificationService&#45;&gt;RabbitMQ</title>
<path fill="none" stroke="#aaaaaa" stroke-dasharray="1,5" d="M1296.4,-74.03C1388.26,-74.03 1538.47,-75.17 1667.86,-81.38 1726.72,-84.21 1793.3,-89.73 1842.54,-94.25"/>
<polygon fill="#aaaaaa" stroke="#aaaaaa" points="1842.5,-97.76 1852.78,-95.2 1843.14,-90.79 1842.5,-97.76"/>
<text text-anchor="middle" x="1493.86" y="-86.58" font-family="Helvetica,sans-Serif" font-size="16.00" fill="#eeeeee">Subscribes to events</text>
</g>
<!-- SearchService -->
<g id="node5" class="node">
<title>SearchService</title>
<defs>
<linearGradient id="l_5" gradientUnits="userSpaceOnUse" x1="932.86" y1="-47.38" x2="932.86" y2="-3.38" >
<stop offset="0" style="stop-color:white;stop-opacity:1.;"/>
<stop offset="1" style="stop-color:lightgrey;stop-opacity:1.;"/>
</linearGradient>
</defs>
<path fill="url(#l_5)" stroke="grey" d="M989.36,-47.38C989.36,-47.38 876.36,-47.38 876.36,-47.38 870.36,-47.38 864.36,-41.38 864.36,-35.38 864.36,-35.38 864.36,-15.38 864.36,-15.38 864.36,-9.38 870.36,-3.38 876.36,-3.38 876.36,-3.38 989.36,-3.38 989.36,-3.38 995.36,-3.38 1001.36,-9.38 1001.36,-15.38 1001.36,-15.38 1001.36,-35.38 1001.36,-35.38 1001.36,-41.38 995.36,-47.38 989.36,-47.38"/>
<text text-anchor="middle" x="932.86" y="-30.58" font-family="Helvetica,sans-Serif" font-size="16.00" fill="#343541">Search Service</text>
<text text-anchor="middle" x="932.86" y="-12.58" font-family="Helvetica,sans-Serif" font-size="16.00" fill="#343541">Elasticsearch</text>
</g>
<!-- Elasticsearch -->
<g id="node10" class="node">
<title>Elasticsearch</title>
<ellipse fill="#b4d7a8" stroke="grey" cx="1493.86" cy="-18.38" rx="86.03" ry="18.27"/>
<text text-anchor="middle" x="1493.86" y="-14.58" font-family="Helvetica,sans-Serif" font-size="16.00" fill="#343541">Elasticsearch</text>
</g>
<!-- SearchService&#45;&gt;Elasticsearch -->
<g id="edge12" class="edge">
<title>SearchService&#45;&gt;Elasticsearch</title>
<path fill="none" stroke="#aaaaaa" d="M1001.57,-24.54C1100.36,-23.3 1284.5,-20.99 1397.13,-19.58"/>
<polygon fill="#aaaaaa" stroke="#aaaaaa" points="1397.51,-23.08 1407.46,-19.45 1397.42,-16.08 1397.51,-23.08"/>
<text text-anchor="middle" x="1209.86" y="-28.58" font-family="Helvetica,sans-Serif" font-size="16.00" fill="#eeeeee">Indexes data</text>
</g>
<!-- GatewayService&#45;&gt;AuctionService -->
<g id="edge2" class="edge">
<title>GatewayService&#45;&gt;AuctionService</title>
<path fill="none" stroke="#aaaaaa" d="M542.98,-183.01C549.03,-183.16 555.05,-183.29 560.86,-183.38 820.8,-187.72 1121.57,-187 1309.53,-185.87"/>
<polygon fill="#aaaaaa" stroke="#aaaaaa" points="1309.81,-189.37 1319.79,-185.81 1309.76,-182.37 1309.81,-189.37"/>
<text text-anchor="middle" x="932.86" y="-191.58" font-family="Helvetica,sans-Serif" font-size="16.00" fill="#eeeeee">Forwards requests</text>
</g>
<!-- GatewayService&#45;&gt;BiddingService -->
<g id="edge3" class="edge">
<title>GatewayService&#45;&gt;BiddingService</title>
<path fill="none" stroke="#aaaaaa" d="M542.9,-167.69C548.97,-166.84 555.01,-166.06 560.86,-165.38 624.2,-158.07 693.88,-152.53 755.58,-148.49"/>
<polygon fill="#aaaaaa" stroke="#aaaaaa" points="756.06,-151.96 765.81,-147.82 755.61,-144.98 756.06,-151.96"/>
<text text-anchor="middle" x="654.36" y="-170.58" font-family="Helvetica,sans-Serif" font-size="16.00" fill="#eeeeee">Forwards requests</text>
</g>
<!-- GatewayService&#45;&gt;IdentityService -->
<g id="edge4" class="edge">
<title>GatewayService&#45;&gt;IdentityService</title>
<path fill="none" stroke="#aaaaaa" d="M489.64,-202.6C507.17,-218.87 533.36,-239.72 560.86,-249.38 656.3,-282.93 774.17,-280.61 851.09,-273.79"/>
<polygon fill="#aaaaaa" stroke="#aaaaaa" points="851.56,-277.26 861.19,-272.84 850.91,-270.29 851.56,-277.26"/>
<text text-anchor="middle" x="654.36" y="-282.58" font-family="Helvetica,sans-Serif" font-size="16.00" fill="#eeeeee">Forwards requests</text>
</g>
<!-- GatewayService&#45;&gt;NotificationService -->
<g id="edge5" class="edge">
<title>GatewayService&#45;&gt;NotificationService</title>
<path fill="none" stroke="#aaaaaa" d="M498.1,-158.25C515.55,-146.68 538.43,-133.49 560.86,-126.38 749.68,-66.56 984.15,-64.32 1112.94,-68.83"/>
<polygon fill="#aaaaaa" stroke="#aaaaaa" points="1113.04,-72.34 1123.17,-69.21 1113.3,-65.34 1113.04,-72.34"/>
<text text-anchor="middle" x="654.36" y="-131.58" font-family="Helvetica,sans-Serif" font-size="16.00" fill="#eeeeee">Forwards requests</text>
</g>
<!-- GatewayService&#45;&gt;SearchService -->
<g id="edge6" class="edge">
<title>GatewayService&#45;&gt;SearchService</title>
<path fill="none" stroke="#aaaaaa" d="M475.71,-158.2C488.22,-126.57 515.95,-69.57 560.86,-44.38 651.62,6.51 775.35,0.8 854.44,-10.38"/>
<polygon fill="#aaaaaa" stroke="#aaaaaa" points="853.93,-13.85 864.33,-11.84 854.95,-6.92 853.93,-13.85"/>
<text text-anchor="middle" x="654.36" y="-49.58" font-family="Helvetica,sans-Serif" font-size="16.00" fill="#eeeeee">Forwards requests</text>
</g>
<!-- ClientApp -->
<g id="node11" class="node">
<title>ClientApp</title>
<ellipse fill="#cdb4db" stroke="grey" cx="112.43" cy="-180.38" rx="112.36" ry="31.23"/>
<text text-anchor="middle" x="112.43" y="-185.58" font-family="Helvetica,sans-Serif" font-size="16.00" fill="#343541">Client Application</text>
<text text-anchor="middle" x="112.43" y="-167.58" font-family="Helvetica,sans-Serif" font-size="16.00" fill="#343541">Next.js</text>
</g>
<!-- ClientApp&#45;&gt;GatewayService -->
<g id="edge1" class="edge">
<title>ClientApp&#45;&gt;GatewayService</title>
<path fill="none" stroke="#aaaaaa" d="M224.94,-180.38C275.29,-180.38 333.83,-180.38 380.59,-180.38"/>
<polygon fill="#aaaaaa" stroke="#aaaaaa" points="380.69,-183.88 390.69,-180.38 380.69,-176.88 380.69,-183.88"/>
<text text-anchor="middle" x="307.86" y="-185.58" font-family="Helvetica,sans-Serif" font-size="16.00" fill="#eeeeee">Routes requests</text>
</g>
<!-- DockerConfigs -->
<g id="node12" class="node">
<title>DockerConfigs</title>
<defs>
<linearGradient id="l_6" gradientUnits="userSpaceOnUse" x1="112.43" y1="-269.38" x2="112.43" y2="-229.38" >
<stop offset="0" style="stop-color:white;stop-opacity:1.;"/>
<stop offset="1" style="stop-color:lightgrey;stop-opacity:1.;"/>
</linearGradient>
</defs>
<polygon fill="url(#l_6)" stroke="grey" points="210.43,-265.38 207.43,-269.38 186.43,-269.38 183.43,-265.38 14.43,-265.38 14.43,-229.38 210.43,-229.38 210.43,-265.38"/>
<text text-anchor="middle" x="112.43" y="-243.58" font-family="Helvetica,sans-Serif" font-size="16.00" fill="#343541">Docker Configurations</text>
</g>
</g>
</svg>
