<?xml version="1.0" encoding="us-ascii" standalone="no"?>
<svg xmlns="http://www.w3.org/2000/svg" contentStyleType="text/css" height="671.875px" preserveAspectRatio="none" style="width:1484px;height:671px;" version="1.1" viewBox="0 0 1484 671" width="1484.375px" zoomAndPan="magnify">
    <defs>
        <filter height="300%" id="fe0t4hou3beft" width="300%" x="-1" y="-1">
            <feGaussianBlur result="blurOut" stdDeviation="2.0833333333333335"/>
            <feColorMatrix in="blurOut" result="blurOut2" type="matrix" values="0 0 0 0 0 0 0 0 0 0 0 0 0 0 0 0 0 0 .4 0"/>
            <feOffset dx="4.166666666666667" dy="4.166666666666667" in="blurOut2" result="blurOut3"/>
            <feBlend in="SourceGraphic" in2="blurOut3" mode="normal"/>
        </filter>
    </defs>
    <g><!--cluster Frontend Systems-->
        <g id="cluster_Frontend Systems">
            <path d="M393.75,302.0833 L546.875,302.0833 A6.25,6.25 0 0 1 551.0417,306.25 L558.3333,343.7174 L727.0833,343.7174 A4.1667,4.1667 0 0 1 731.25,347.8841 L731.25,573.9583 A4.1667,4.1667 0 0 1 727.0833,578.125 L393.75,578.125 A4.1667,4.1667 0 0 1 389.5833,573.9583 L389.5833,306.25 A4.1667,4.1667 0 0 1 393.75,302.0833 " fill="none" filter="url(#fe0t4hou3beft)" style="stroke:#2196F3;stroke-width:2.0833333333333335;"/>
            <line style="stroke:#2196F3;stroke-width:2.0833333333333335;" x1="389.5833" x2="558.3333" y1="343.7174" y2="343.7174"/>
            <text fill="#2196F3" font-family="Verdana" font-size="12.5" font-weight="bold" lengthAdjust="spacing" textLength="134.375" x="404.1667" y="326.1861">Frontend Systems</text>
        </g><!--cluster Backend Systems-->
        <g id="cluster_Backend Systems">
            <path d="M889.5833,16.6667 L1037.5,16.6667 A6.25,6.25 0 0 1 1041.6667,20.8333 L1048.9583,58.3008 L1422.9167,58.3008 A4.1667,4.1667 0 0 1 1427.0833,62.4674 L1427.0833,185.4167 A4.1667,4.1667 0 0 1 1422.9167,189.5833 L889.5833,189.5833 A4.1667,4.1667 0 0 1 885.4167,185.4167 L885.4167,20.8333 A4.1667,4.1667 0 0 1 889.5833,16.6667 " fill="none" filter="url(#fe0t4hou3beft)" style="stroke:#2196F3;stroke-width:2.0833333333333335;"/>
            <line style="stroke:#2196F3;stroke-width:2.0833333333333335;" x1="885.4167" x2="1048.9583" y1="58.3008" y2="58.3008"/>
            <text fill="#2196F3" font-family="Verdana" font-size="12.5" font-weight="bold" lengthAdjust="spacing" textLength="129.1667" x="900" y="40.7694">Backend Systems</text>
        </g><!--cluster Video Content Delivery-->
        <g id="cluster_Video Content Delivery">
            <path d="M888.5417,515.625 L1076.0417,515.625 A6.25,6.25 0 0 1 1080.2083,519.7917 L1087.5,557.2591 L1433.8542,557.2591 A4.1667,4.1667 0 0 1 1438.0208,561.4258 L1438.0208,655.2083 A4.1667,4.1667 0 0 1 1433.8542,659.375 L888.5417,659.375 A4.1667,4.1667 0 0 1 884.375,655.2083 L884.375,519.7917 A4.1667,4.1667 0 0 1 888.5417,515.625 " fill="none" filter="url(#fe0t4hou3beft)" style="stroke:#2196F3;stroke-width:2.0833333333333335;"/>
            <line style="stroke:#2196F3;stroke-width:2.0833333333333335;" x1="884.375" x2="1087.5" y1="557.2591" y2="557.2591"/>
            <text fill="#2196F3" font-family="Verdana" font-size="12.5" font-weight="bold" lengthAdjust="spacing" textLength="168.75" x="898.9583" y="539.7278">Video Content Delivery</text>
        </g><!--cluster Data Management and Security-->
        <g id="cluster_Data Management and Security">
            <path d="M1206.25,214.5833 L1458.3333,214.5833 A6.25,6.25 0 0 1 1462.5,218.75 L1469.7917,256.2174 L1467.7083,256.2174 A4.1667,4.1667 0 0 1 1471.875,260.3841 L1471.875,486.4583 A4.1667,4.1667 0 0 1 1467.7083,490.625 L1206.25,490.625 A4.1667,4.1667 0 0 1 1202.0833,486.4583 L1202.0833,218.75 A4.1667,4.1667 0 0 1 1206.25,214.5833 " fill="none" filter="url(#fe0t4hou3beft)" style="stroke:#2196F3;stroke-width:2.0833333333333335;"/>
            <line style="stroke:#2196F3;stroke-width:2.0833333333333335;" x1="1202.0833" x2="1469.7917" y1="256.2174" y2="256.2174"/>
            <text fill="#2196F3" font-family="Verdana" font-size="12.5" font-weight="bold" lengthAdjust="spacing" textLength="233.3333" x="1216.6667" y="238.6861">Data Management and Security</text>
        </g><!--cluster Administrative Panel-->
        <g id="cluster_Administrative Panel">
            <path d="M20.8333,31.25 L191.6667,31.25 A6.25,6.25 0 0 1 195.8333,35.4167 L203.125,72.8841 L700.5208,72.8841 A4.1667,4.1667 0 0 1 704.6875,77.0508 L704.6875,170.8333 A4.1667,4.1667 0 0 1 700.5208,175 L20.8333,175 A4.1667,4.1667 0 0 1 16.6667,170.8333 L16.6667,35.4167 A4.1667,4.1667 0 0 1 20.8333,31.25 " fill="none" filter="url(#fe0t4hou3beft)" style="stroke:#2196F3;stroke-width:2.0833333333333335;"/>
            <line style="stroke:#2196F3;stroke-width:2.0833333333333335;" x1="16.6667" x2="203.125" y1="72.8841" y2="72.8841"/>
            <text fill="#2196F3" font-family="Verdana" font-size="12.5" font-weight="bold" lengthAdjust="spacing" textLength="152.0833" x="31.25" y="55.3528">Administrative Panel</text>
        </g><!--cluster Global Content Delivery-->
        <g id="cluster_Global Content Delivery">
            <path d="M20.8333,319.7917 L213.5417,319.7917 A6.25,6.25 0 0 1 217.7083,323.9583 L225,361.4258 L223.9583,361.4258 A4.1667,4.1667 0 0 1 228.125,365.5924 L228.125,453.125 A4.1667,4.1667 0 0 1 223.9583,457.2917 L20.8333,457.2917 A4.1667,4.1667 0 0 1 16.6667,453.125 L16.6667,323.9583 A4.1667,4.1667 0 0 1 20.8333,319.7917 " fill="none" filter="url(#fe0t4hou3beft)" style="stroke:#2196F3;stroke-width:2.0833333333333335;"/>
            <line style="stroke:#2196F3;stroke-width:2.0833333333333335;" x1="16.6667" x2="225" y1="361.4258" y2="361.4258"/>
            <text fill="#2196F3" font-family="Verdana" font-size="12.5" font-weight="bold" lengthAdjust="spacing" textLength="173.9583" x="31.25" y="343.8944">Global Content Delivery</text>
        </g><!--entity User Interface-->
        <g id="elem_User Interface">
            <rect fill="none" filter="url(#fe0t4hou3beft)" height="102.0182" rx="4.1667" ry="4.1667" style="stroke:#2196F3;stroke-width:1.0416666666666667;" width="155.2083" x="482.8125" y="356.2813"/>
            <rect fill="none" height="10.4167" style="stroke:#2196F3;stroke-width:1.0416666666666667;" width="15.625" x="617.1875" y="361.4896"/>
            <rect fill="none" height="2.0833" style="stroke:#2196F3;stroke-width:1.0416666666666667;" width="4.1667" x="615.1042" y="363.5729"/>
            <rect fill="none" height="2.0833" style="stroke:#2196F3;stroke-width:1.0416666666666667;" width="4.1667" x="615.1042" y="367.7396"/>
            <text fill="#2196F3" font-family="Verdana" font-size="12.5" font-style="italic" lengthAdjust="spacing" textLength="54.1667" x="528.125" y="399.134">&#171;NextJs&#187;</text>
            <text fill="#2196F3" font-family="Verdana" font-size="12.5" lengthAdjust="spacing" textLength="92.7083" x="508.8542" y="434.5181">User Interface</text>
        </g><!--entity NextJs, TypeScript, Tailwind CSS, SCSS-->
        <g id="elem_NextJs, TypeScript, Tailwind CSS, SCSS">
            <rect fill="none" filter="url(#fe0t4hou3beft)" height="66.6341" rx="4.1667" ry="4.1667" style="stroke:#2196F3;stroke-width:1.0416666666666667;" width="308.3333" x="406.25" y="494.8125"/>
            <rect fill="none" height="10.4167" style="stroke:#2196F3;stroke-width:1.0416666666666667;" width="15.625" x="693.75" y="500.0208"/>
            <rect fill="none" height="2.0833" style="stroke:#2196F3;stroke-width:1.0416666666666667;" width="4.1667" x="691.6667" y="502.1042"/>
            <rect fill="none" height="2.0833" style="stroke:#2196F3;stroke-width:1.0416666666666667;" width="4.1667" x="691.6667" y="506.2708"/>
            <text fill="#2196F3" font-family="Verdana" font-size="12.5" lengthAdjust="spacing" textLength="245.8333" x="432.2917" y="537.6653">NextJs, TypeScript, Tailwind CSS, SCSS</text>
        </g><!--entity Server API-->
        <g id="elem_Server API">
            <rect fill="none" filter="url(#fe0t4hou3beft)" height="102.0182" rx="4.1667" ry="4.1667" style="stroke:#2196F3;stroke-width:1.0416666666666667;" width="140.625" x="902.0833" y="70.8646"/>
            <rect fill="none" height="10.4167" style="stroke:#2196F3;stroke-width:1.0416666666666667;" width="15.625" x="1021.875" y="76.0729"/>
            <rect fill="none" height="2.0833" style="stroke:#2196F3;stroke-width:1.0416666666666667;" width="4.1667" x="1019.7917" y="78.1562"/>
            <rect fill="none" height="2.0833" style="stroke:#2196F3;stroke-width:1.0416666666666667;" width="4.1667" x="1019.7917" y="82.3229"/>
            <text fill="#2196F3" font-family="Verdana" font-size="12.5" font-style="italic" lengthAdjust="spacing" textLength="78.125" x="928.125" y="113.7174">&#171;.NET Core&#187;</text>
            <text fill="#2196F3" font-family="Verdana" font-size="12.5" lengthAdjust="spacing" textLength="65.625" x="934.375" y="149.1015">Server API</text>
        </g><!--entity Database-->
        <g id="elem_Database">
            <rect fill="none" filter="url(#fe0t4hou3beft)" height="102.0182" rx="4.1667" ry="4.1667" style="stroke:#2196F3;stroke-width:1.0416666666666667;" width="146.875" x="1263.5417" y="70.8646"/>
            <rect fill="none" height="10.4167" style="stroke:#2196F3;stroke-width:1.0416666666666667;" width="15.625" x="1389.5833" y="76.0729"/>
            <rect fill="none" height="2.0833" style="stroke:#2196F3;stroke-width:1.0416666666666667;" width="4.1667" x="1387.5" y="78.1562"/>
            <rect fill="none" height="2.0833" style="stroke:#2196F3;stroke-width:1.0416666666666667;" width="4.1667" x="1387.5" y="82.3229"/>
            <text fill="#2196F3" font-family="Verdana" font-size="12.5" font-style="italic" lengthAdjust="spacing" textLength="84.375" x="1289.5833" y="113.7174">&#171;SQL Server&#187;</text>
            <text fill="#2196F3" font-family="Verdana" font-size="12.5" lengthAdjust="spacing" textLength="63.5417" x="1300" y="149.1015">Database</text>
        </g><!--entity Proxy Server-->
        <g id="elem_Proxy Server">
            <rect fill="none" filter="url(#fe0t4hou3beft)" height="66.6341" rx="4.1667" ry="4.1667" style="stroke:#2196F3;stroke-width:1.0416666666666667;" width="142.7083" x="901.0417" y="571.8958"/>
            <rect fill="none" height="10.4167" style="stroke:#2196F3;stroke-width:1.0416666666666667;" width="15.625" x="1022.9167" y="577.1042"/>
            <rect fill="none" height="2.0833" style="stroke:#2196F3;stroke-width:1.0416666666666667;" width="4.1667" x="1020.8333" y="579.1875"/>
            <rect fill="none" height="2.0833" style="stroke:#2196F3;stroke-width:1.0416666666666667;" width="4.1667" x="1020.8333" y="583.3542"/>
            <text fill="#2196F3" font-family="Verdana" font-size="12.5" lengthAdjust="spacing" textLength="80.2083" x="927.0833" y="614.7486">Proxy Server</text>
        </g><!--entity Google Drive API-->
        <g id="elem_Google Drive API">
            <rect fill="none" filter="url(#fe0t4hou3beft)" height="66.6341" rx="4.1667" ry="4.1667" style="stroke:#2196F3;stroke-width:1.0416666666666667;" width="168.75" x="1252.6042" y="572.9375"/>
            <rect fill="none" height="10.4167" style="stroke:#2196F3;stroke-width:1.0416666666666667;" width="15.625" x="1400.5208" y="578.1458"/>
            <rect fill="none" height="2.0833" style="stroke:#2196F3;stroke-width:1.0416666666666667;" width="4.1667" x="1398.4375" y="580.2292"/>
            <rect fill="none" height="2.0833" style="stroke:#2196F3;stroke-width:1.0416666666666667;" width="4.1667" x="1398.4375" y="584.3958"/>
            <text fill="#2196F3" font-family="Verdana" font-size="12.5" lengthAdjust="spacing" textLength="106.25" x="1278.6458" y="615.7903">Google Drive API</text>
        </g><!--entity SQL Server-->
        <g id="elem_SQL Server">
            <rect fill="none" filter="url(#fe0t4hou3beft)" height="102.0182" rx="4.1667" ry="4.1667" style="stroke:#2196F3;stroke-width:1.0416666666666667;" width="140.625" x="1266.6667" y="268.7813"/>
            <rect fill="none" height="10.4167" style="stroke:#2196F3;stroke-width:1.0416666666666667;" width="15.625" x="1386.4583" y="273.9896"/>
            <rect fill="none" height="2.0833" style="stroke:#2196F3;stroke-width:1.0416666666666667;" width="4.1667" x="1384.375" y="276.0729"/>
            <rect fill="none" height="2.0833" style="stroke:#2196F3;stroke-width:1.0416666666666667;" width="4.1667" x="1384.375" y="280.2396"/>
            <text fill="#2196F3" font-family="Verdana" font-size="12.5" font-style="italic" lengthAdjust="spacing" textLength="78.125" x="1292.7083" y="311.634">&#171;Database&#187;</text>
            <text fill="#2196F3" font-family="Verdana" font-size="12.5" lengthAdjust="spacing" textLength="69.7917" x="1296.875" y="347.0181">SQL Server</text>
        </g><!--entity Security Measures-->
        <g id="elem_Security Measures">
            <rect fill="none" filter="url(#fe0t4hou3beft)" height="66.6341" rx="4.1667" ry="4.1667" style="stroke:#2196F3;stroke-width:1.0416666666666667;" width="182.2917" x="1245.8333" y="407.3125"/>
            <rect fill="none" height="10.4167" style="stroke:#2196F3;stroke-width:1.0416666666666667;" width="15.625" x="1407.2917" y="412.5208"/>
            <rect fill="none" height="2.0833" style="stroke:#2196F3;stroke-width:1.0416666666666667;" width="4.1667" x="1405.2083" y="414.6042"/>
            <rect fill="none" height="2.0833" style="stroke:#2196F3;stroke-width:1.0416666666666667;" width="4.1667" x="1405.2083" y="418.7708"/>
            <text fill="#2196F3" font-family="Verdana" font-size="12.5" lengthAdjust="spacing" textLength="119.7917" x="1271.875" y="450.1653">Security Measures</text>
        </g><!--entity Admin Dashboard-->
        <g id="elem_Admin Dashboard">
            <rect fill="none" filter="url(#fe0t4hou3beft)" height="66.6341" rx="4.1667" ry="4.1667" style="stroke:#2196F3;stroke-width:1.0416666666666667;" width="178.125" x="33.3333" y="88.5625"/>
            <rect fill="none" height="10.4167" style="stroke:#2196F3;stroke-width:1.0416666666666667;" width="15.625" x="190.625" y="93.7708"/>
            <rect fill="none" height="2.0833" style="stroke:#2196F3;stroke-width:1.0416666666666667;" width="4.1667" x="188.5417" y="95.8542"/>
            <rect fill="none" height="2.0833" style="stroke:#2196F3;stroke-width:1.0416666666666667;" width="4.1667" x="188.5417" y="100.0208"/>
            <text fill="#2196F3" font-family="Verdana" font-size="12.5" lengthAdjust="spacing" textLength="115.625" x="59.375" y="131.4153">Admin Dashboard</text>
        </g><!--entity Content Management System-->
        <g id="elem_Content Management System">
            <rect fill="none" filter="url(#fe0t4hou3beft)" height="66.6341" rx="4.1667" ry="4.1667" style="stroke:#2196F3;stroke-width:1.0416666666666667;" width="255.2083" x="432.8125" y="88.5625"/>
            <rect fill="none" height="10.4167" style="stroke:#2196F3;stroke-width:1.0416666666666667;" width="15.625" x="667.1875" y="93.7708"/>
            <rect fill="none" height="2.0833" style="stroke:#2196F3;stroke-width:1.0416666666666667;" width="4.1667" x="665.1042" y="95.8542"/>
            <rect fill="none" height="2.0833" style="stroke:#2196F3;stroke-width:1.0416666666666667;" width="4.1667" x="665.1042" y="100.0208"/>
            <text fill="#2196F3" font-family="Verdana" font-size="12.5" lengthAdjust="spacing" textLength="192.7083" x="458.8542" y="131.4153">Content Management System</text>
        </g><!--entity Cloudflare CDN-->
        <g id="elem_Cloudflare CDN">
            <rect fill="none" filter="url(#fe0t4hou3beft)" height="66.6341" rx="4.1667" ry="4.1667" style="stroke:#2196F3;stroke-width:1.0416666666666667;" width="159.375" x="42.7083" y="373.9792"/>
            <rect fill="none" height="10.4167" style="stroke:#2196F3;stroke-width:1.0416666666666667;" width="15.625" x="181.25" y="379.1875"/>
            <rect fill="none" height="2.0833" style="stroke:#2196F3;stroke-width:1.0416666666666667;" width="4.1667" x="179.1667" y="381.2708"/>
            <rect fill="none" height="2.0833" style="stroke:#2196F3;stroke-width:1.0416666666666667;" width="4.1667" x="179.1667" y="385.4375"/>
            <text fill="#2196F3" font-family="Verdana" font-size="12.5" lengthAdjust="spacing" textLength="96.875" x="68.75" y="416.8319">Cloudflare CDN</text>
        </g><!--link User Interface to Server API-->
        <g id="link_User Interface_Server API">
            <path d="M635.2083,355.9375 C710.8125,303.2917 822.3708,225.613 896.4854,174.0088 " fill="none" id="User Interface-to-Server API" style="stroke:#2196F3;stroke-width:3.125;"/>
            <polygon fill="#2196F3" points="901.6146,170.4375,891.54,172.375,897.3403,173.4136,896.3017,179.2139,901.6146,170.4375" style="stroke:#2196F3;stroke-width:3.125;"/>
            <text fill="white" font-family="Verdana" font-size="12.5" lengthAdjust="spacing" textLength="31.25" x="792.1875" y="185.5611">uses</text>
        </g><!--link Server API to Database-->
        <g id="link_Server API_Database">
            <path d="M1042.9063,121.875 C1106.1146,121.875 1192.8542,121.875 1257.0417,121.875 " fill="none" id="Server API-to-Database" style="stroke:#2196F3;stroke-width:3.125;"/>
            <polygon fill="#2196F3" points="1263.2917,121.875,1253.9167,117.7083,1258.0833,121.875,1253.9167,126.0417,1263.2917,121.875" style="stroke:#2196F3;stroke-width:3.125;"/>
            <text fill="white" font-family="Verdana" font-size="12.5" lengthAdjust="spacing" textLength="48.9583" x="1105.7292" y="108.4778">queries</text>
        </g><!--link User Interface to Proxy Server-->
        <g id="link_User Interface_Proxy Server">
            <path d="M638.2292,434.8438 C670,446.8854 706.9688,461.7604 739.5833,477.0833 C801.1667,506.0208 863.6204,541.159 909.9016,568.3257 " fill="none" id="User Interface-to-Proxy Server" style="stroke:#2196F3;stroke-width:3.125;"/>
            <polygon fill="#2196F3" points="915.2917,571.4896,909.3159,563.1504,910.8,568.853,905.0974,570.3371,915.2917,571.4896" style="stroke:#2196F3;stroke-width:3.125;"/>
            <text fill="white" font-family="Verdana" font-size="12.5" lengthAdjust="spacing" textLength="96.875" x="759.375" y="469.9361">requests video</text>
        </g><!--link Proxy Server to Google Drive API-->
        <g id="link_Proxy Server_Google Drive API">
            <path d="M1044.1875,605.4167 C1103.8438,605.5833 1183.0625,605.8158 1246.0834,605.9929 " fill="none" id="Proxy Server-to-Google Drive API" style="stroke:#2196F3;stroke-width:3.125;"/>
            <polygon fill="#2196F3" points="1252.3333,606.0104,1242.9701,601.8174,1247.125,605.9958,1242.9467,610.1507,1252.3333,606.0104" style="stroke:#2196F3;stroke-width:3.125;"/>
            <text fill="white" font-family="Verdana" font-size="12.5" lengthAdjust="spacing" textLength="87.5" x="1086.4583" y="592.8528">fetches video</text>
        </g><!--link Server API to Security Measures-->
        <g id="link_Server API_Security Measures">
            <path d="M1003.9375,173.2917 C1041.625,232.7708 1111.0208,330.0104 1193.75,388.5417 C1209.3125,399.5521 1221.6514,406.1886 1239.6827,413.3657 " fill="none" id="Server API-to-Security Measures" style="stroke:#2196F3;stroke-width:3.125;"/>
            <polygon fill="#2196F3" points="1245.4896,415.6771,1238.3201,408.3388,1240.6505,413.751,1235.2383,416.0813,1245.4896,415.6771" style="stroke:#2196F3;stroke-width:3.125;"/>
            <text fill="white" font-family="Verdana" font-size="12.5" lengthAdjust="spacing" textLength="53.125" x="1103.6458" y="264.7278">employs</text>
        </g><!--link Admin Dashboard to Content Management System-->
        <g id="link_Admin Dashboard_Content Management System">
            <path d="M211.9167,121.875 C275.3854,121.875 355.5625,121.875 426.3438,121.875 " fill="none" id="Admin Dashboard-to-Content Management System" style="stroke:#2196F3;stroke-width:3.125;"/>
            <polygon fill="#2196F3" points="432.5938,121.875,423.2188,117.7083,427.3854,121.875,423.2188,126.0417,432.5938,121.875" style="stroke:#2196F3;stroke-width:3.125;"/>
            <text fill="white" font-family="Verdana" font-size="12.5" lengthAdjust="spacing" textLength="60.4167" x="282.2917" y="108.4778">manages</text>
        </g><!--link Content Management System to Server API-->
        <g id="link_Content Management System_Server API">
            <path d="M688.3438,121.875 C758.6458,121.875 837.1042,121.875 895.4167,121.875 " fill="none" id="Content Management System-to-Server API" style="stroke:#2196F3;stroke-width:3.125;"/>
            <polygon fill="#2196F3" points="901.6667,121.875,892.2917,117.7083,896.4583,121.875,892.2917,126.0417,901.6667,121.875" style="stroke:#2196F3;stroke-width:3.125;"/>
            <text fill="white" font-family="Verdana" font-size="12.5" lengthAdjust="spacing" textLength="54.1667" x="780.7292" y="108.4778">updates</text>
        </g><!--link Cloudflare CDN to User Interface-->
        <g id="link_Cloudflare CDN_User Interface">
            <path d="M202.3854,407.2917 C281.875,407.2917 397.4688,407.2917 476.2292,407.2917 " fill="none" id="Cloudflare CDN-to-User Interface" style="stroke:#2196F3;stroke-width:3.125;"/>
            <polygon fill="#2196F3" points="482.4792,407.2917,473.1042,403.125,477.2708,407.2917,473.1042,411.4583,482.4792,407.2917" style="stroke:#2196F3;stroke-width:3.125;"/>
            <text fill="white" font-family="Verdana" font-size="12.5" lengthAdjust="spacing" textLength="97.9167" x="263.5417" y="393.8944">delivers assets</text>
        </g><!--SRC=[XLJBRjim4BphAxRfDUuXHoCmu5fDaA8nNCZjfV1XBQri8XIfagiqGj5_xvAAQptIH0U28cTsXZiIt_6HAe8AcPp2cMrOAqE9ffA1BJXrE38Kob7Eofh4FoXJeyCASblLrf3XZ5jDq5JwghTRK8cDvYqzyLAhWwa42BaCv7eebksLrTR1-vlu94cD-GCU22vkd1MqAI1hFLFbB-1t0cTL-F7DauExKB74d7PmVRsMSf_zOZ74TQkNi6rhodAdQfOvAlrBIV5Lbbr29kCk-TCJ_oYJrxGpSe-YljpS1TqFwqzRM5b7O-aK6VVeexdiwnVeQ8BgQtrN1LcXXzCofAILODg9vCRPf_QvmcwuTMljGI98dJ2Zfq7zO0BkqSXBJ073kIXldEAfojbby7poFpxNYGxtXBvnv8UAow9IHdbsoC7H1WtfYL84GOh-kBVeYj6HJkte-Uwo62hTQhj7_NRpLjesHQdH4QpITQmn-NvciyKms3aqddmoM8kWSwnp-Dd8VnDGBvORX2PeHuBtxE4nX9wCzYDb4gRGIkByIFzO4qFJF8H4LQrjAyx6dUuu_- -mSAkuADnNK2_rgoxa7WcqORyxxBX3SxabObuUq7jY_nS0]-->
    </g>
</svg>